# AST/ASF file generated using VICON BodyLanguage
# -----------------------------------------------
:version 1.10
:name VICON
:units
  mass 1.0
  length 0.45
  angle deg
:documentation
   .ast/.asf automatically generated from VICON data using
   VICON BodyBuilder and BodyLanguage model FoxedUp or BRILLIANT.MOD
:root
   order TX TY TZ RX RY RZ
   axis XYZ
   position 0 0 0  
   orientation 0 0 0 
:bonedata
  begin
     id 1 
     name lhipjoint
     direction 0.624716 -0.669793 0.401383 
     length 2.38238 
     axis 0 0 0  XYZ
  end
  begin
     id 2 
     name lfemur
     direction 0.34202 -0.939693 0  
     length 6.4574  
     axis 0 0 20  XYZ
    dof rx ry rz
    limits (-160.0 20.0)
           (-70.0 70.0)
           (-60.0 70.0)
  end
  begin
     id 3 
     name ltibia
     direction 0.34202 -0.939693 0   
     length 7.68739   
     axis 0 0 20   XYZ
    dof rx
    limits (-10.0 170.0)
  end
  begin
     id 4 
     name lfoot
     direction 0.0681309 -0.187188 0.979959   
     length 2.46615   
     axis -90 7.62852e-016 20   XYZ
    dof rx rz
    limits (-45.0 90.0)
           (-70.0 20.0)
  end
  begin
     id 5 
     name ltoes
     direction 1.53566e-011 -4.21819e-011 1   
     length 1.2376   
     axis -90 7.62852e-016 20   XYZ
    dof rx
    limits (-90.0 20.0)
  end
  begin
     id 6 
     name rhipjoint
     direction -0.644473 -0.655875 0.393043   
     length 2.43293  
     axis 0 0 0  XYZ 
  end
  begin
     id 7 
     name rfemur
     direction -0.34202 -0.939693 0   
     length 6.7025   
     axis 0 0 -20   XYZ
    dof rx ry rz
    limits (-160.0 20.0)
           (-70.0 70.0)
           (-70.0 60.0)
  end
  begin
     id 8 
     name rtibia
     direction -0.34202 -0.939693 0   
     length 7.80547   
     axis 0 0 -20   XYZ
    dof rx
    limits (-10.0 170.0)
 end
 begin
     id 9 
     name rfoot
     direction -0.0756734 -0.207911 0.975216   
     length 2.40315  
     axis -90 -7.62852e-016 -20   XYZ
    dof rx rz
    limits (-45.0 90.0)
           (-20.0 70.0)
  end
  begin
     id 10 
     name rtoes
     direction -1.5353e-011 -4.21879e-011 1   
     length 1.20477   
     axis -90 -7.62852e-016 -20   XYZ
    dof rx
    limits (-90.0 20.0)
  end
  begin
     id 11 
     name lowerback
     direction 0.0160353 0.987463 -0.157037   
     length 2.18572   
     axis 0 0 0   XYZ
    dof rx ry rz
    limits (-20.0 45.0)
           (-30.0 30.0)
           (-30.0 30.0)
  end
  begin
     id 12 
     name upperback
     direction -0.00499661 0.999756 0.0215076   
     length 2.18016   
     axis 0 0 0   XYZ
    dof rx ry rz
    limits (-20.0 45.0)
           (-30.0 30.0)
           (-30.0 30.0)
  end
  begin
     id 13 
     name thorax
     direction -0.00921346 0.995333 0.0960619   
     length 2.24923   
     axis 0 0 0   XYZ
    dof rx ry rz
    limits (-20.0 45.0)
           (-30.0 30.0)
           (-30.0 30.0)
  end
  begin
     id 14 
     name lowerneck
     direction 0.0274184 0.991181 0.12965   
     length 1.70911   
     axis 0 0 0   XYZ
    dof rx ry rz
    limits (-20.0 45.0)
           (-30.0 30.0)
           (-30.0 30.0)
  end
  begin
     id 15 
     name upperneck
     direction 0.0015627 0.999959 -0.00893559   
     length 1.69312   
     axis 0 0 0   XYZ
    dof rx ry rz
    limits (-20.0 45.0)
           (-30.0 30.0)
           (-30.0 30.0)
  end
  begin
     id 16
     name head
     direction -0.00230242 0.999856 -0.0168327  
     length 1.80241  
     axis 0 0 0   XYZ
    dof rx ry rz
    limits (-20.0 45.0)
           (-30.0 30.0)
           (-30.0 30.0)
  end
  begin
     id 17 
     name lclavicle
     direction 0.955523 0.290741 -0.0494489  
     length 3.84275  
     axis 0 0 0   XYZ
    dof ry rz
    limits (-20.0 10.0)
           (0.0 20.0)
  end
  begin
     id 18 
     name lhumerus
     direction 1 -4.48967e-011 -3.18382e-028   
     length 5.17714   
     axis 180 -30 -90   XYZ
    dof rx ry rz
    limits (-60.0 90.0)
           (-90.0 90.0)
           (-90.0 90.0)
  end
  begin
     id 19
     name lradius
     direction 1 -4.48968e-011 -2.22911e-027   
     length 3.43679   
     axis 180 -30 -90   XYZ
    dof rx
    limits (-10.0 170.0)
  end
  begin
     id 20
     name lwrist
     direction 1 -4.48951e-011 -6.32245e-027   
     length 1.7184   
     axis 3.57107e-015 90 90   XYZ
    dof ry
    limits (-180.0 0.0)
 end
  begin
     id 21 
     name lhand
     direction 1 -4.48924e-011 -1.26431e-026   
     length 0.573117   
     axis 8.06912e-015 90 90   XYZ
    dof rx rz
    limits (-90.0 90.0)
           (-45.0 45.0)
  end
  begin
     id 22 
     name lfingers
     direction 1 -4.49001e-011 -2.52965e-026   
     length 0.462062   
     axis 1.61381e-014 90 90   XYZ
    dof rx
    limits (0.0 90.0)
  end
  begin
     id 23
     name lthumb
     direction 0.707107 -6.35008e-011 0.707107   
     length 0.663431   
     axis -90 45 -1.62303e-014   XYZ
    dof rx rz
    limits (-45.0 45.0)
           (-45.0 45.0)
  end
  begin
     id 24 
     name rclavicle
     direction -0.963917 0.256881 -0.0698287   
     length 3.73057  
     axis 0 0 0   XYZ 
    dof ry rz
    limits (-10.0 20.0)
           (-20.0 0.0)
  end
  begin
     id 25 
     name rhumerus
     direction -1 -4.48962e-011 -2.73982e-027  
     length 5.23908   
     axis 180 30 90   XYZ
    dof rx ry rz
    limits (-90.0 60.0)
           (-90.0 90.0)
           (-90.0 90.0)
  end
  begin
     id 26 
     name rradius
     direction -1 -4.48968e-011 -4.33218e-027   
     length 3.46485   
     axis 180 30 90   XYZ
    dof rx
    limits (-10.0 170.0)
  end
  begin
     id 27 
     name rwrist
     direction -1 -4.48989e-011 -6.32372e-027   
     length 1.73243   
     axis 3.57107e-015 -90 -90   XYZ
    dof ry
    limits (-180.0 0.0)
  end
  begin
     id 28
     name rhand
     direction -1 -4.48948e-011 -1.26448e-026   
     length 0.608752   
     axis 8.06912e-015 -90 -90   XYZ
    dof rx rz
    limits (-90.0 90.0)
           (-45.0 45.0)
  end
  begin
     id 29
     name rfingers
     direction -1 -4.48962e-011 -2.52913e-026   
     length 0.490792   
     axis 1.61381e-014 -90 -90   XYZ
    dof rx
    limits (0.0 90.0)
  end
  begin
     id 30
     name rthumb
     direction -0.707107 -6.34878e-011 0.707107   
     length 0.704682   
     axis -90 -45 1.62303e-014   XYZ
    dof rx rz
    limits (-45.0 45.0)
           (-45.0 45.0)
  end
:hierarchy
  begin
    root lhipjoint rhipjoint lowerback
    lhipjoint lfemur
    lfemur ltibia
    ltibia lfoot
    lfoot ltoes
    rhipjoint rfemur
    rfemur rtibia
    rtibia rfoot
    rfoot rtoes
    lowerback upperback
    upperback thorax
    thorax lowerneck lclavicle rclavicle
    lowerneck upperneck
    upperneck head
    lclavicle lhumerus
    lhumerus lradius
    lradius lwrist
    lwrist lhand lthumb
    lhand lfingers
    rclavicle rhumerus
    rhumerus rradius
    rradius rwrist
    rwrist rhand rthumb
    rhand rfingers
  end

#!OML:ASF G:\JayActor3\Patient Classification 1\Patient 1\Session 6\male.ASF
:FULLY-SPECIFIED
:DEGREES
505
root 34.6802 15.7463 1.68058 179.413 -27.2032 -185.752
lowerback -3.09012 -1.19705 -2.48634
upperback 0.995909 -1.53223 -3.78466
thorax 2.71858 -0.831676 -2.58963
lowerneck 0.802687 8.13347 6.71491
upperneck 3.70716 10.787 -0.84677
head 1.45458 5.44071 -1.23096
rclavicle 1.2101e-014 -1.74931e-014
rhumerus -37.6527 1.32631 -88.7467
rradius 26.6732
rwrist 1.11423
rhand -22.4132 -4.79515
rfingers 7.12502
rthumb 4.00976 -34.7372
lclavicle 1.2101e-014 -1.74931e-014
lhumerus -23.8342 3.60288 75.5409
lradius 63.9241
lwrist 35.8561
lhand -6.97051 16.4495
lfingers 7.12502
lthumb 18.8992 45.5513
rfemur -35.5307 9.48498 17.9406
rtibia 75.6244
rfoot -13.7829 -10.3847
rtoes -11.9722
lfemur 4.26439 16.6849 -28.4318
ltibia 23.7317
lfoot -17.5483 -9.04801
ltoes -0.203427
506
root 34.6322 15.764 1.59416 179.563 -27.1948 -185.711
lowerback -3.14543 -1.42662 -2.73487
upperback 0.931902 -1.81983 -3.47113
thorax 2.69394 -0.974626 -2.14157
lowerneck 0.8693 8.20591 6.98944
upperneck 3.58435 10.9173 -1.47284
head 1.46796 5.50479 -1.47418
rclavicle -6.11263e-014 -5.40694e-014
rhumerus -38.0762 0.958687 -87.7377
rradius 26.2899
rwrist 1.56519
rhand -22.2145 -4.77451
rfingers 7.12502
rthumb 4.20162 -34.7128
lclavicle -6.11263e-014 -5.40694e-014
lhumerus -23.5563 3.06935 75.7828
lradius 64.0378
lwrist 35.4437
lhand -6.22374 16.6903
lfingers 7.12502
lthumb 19.6173 45.7205
rfemur -36.1058 9.99307 18.0075
rtibia 73.7981
rfoot -14.004 -10.3487
rtoes -12.1305
lfemur 4.83477 17.1693 -28.1946
ltibia 23.0681
lfoot -17.1957 -9.55163
ltoes -0.420048
507
root 34.5835 15.7818 1.50685 179.75 -27.1867 -185.709
lowerback -3.21213 -1.65228 -3.02022
upperback 0.856021 -2.1017 -3.16087
thorax 2.67053 -1.11557 -1.67764
lowerneck 0.934916 8.28018 7.25328
upperneck 3.46036 11.0488 -2.09526
head 1.48184 5.56938 -1.7165
rclavicle 2.41399e-014 4.37326e-014
rhumerus -38.5074 0.57253 -86.6954
rradius 25.9347
rwrist 1.95039
rhand -22.0665 -4.78085
rfingers 7.12502
rthumb 4.34453 -34.7163
lclavicle 2.41399e-014 4.37326e-014
lhumerus -23.3157 2.51335 76.0387
lradius 64.1172
lwrist 35.0292
lhand -5.55739 16.8857
lfingers 7.12502
lthumb 20.2578 45.8493
rfemur -36.6409 10.4623 18.014
rtibia 71.8848
rfoot -14.2362 -10.3614
rtoes -12.0497
lfemur 5.43852 17.7072 -27.9818
ltibia 22.3131
lfoot -16.7802 -10.1072
ltoes -0.550576
508
root 34.5344 15.7995 1.41933 179.967 -27.1841 -185.741
lowerback -3.27913 -1.8763 -3.33132
upperback 0.770835 -2.38159 -2.85581
thorax 2.64453 -1.25606 -1.20588
lowerneck 0.985347 8.36033 7.50596
upperneck 3.3444 11.1854 -2.70447
head 1.50115 5.63651 -1.95375
rclavicle 8.19987e-016 -5.56597e-015
rhumerus -38.9383 0.165892 -85.6258
rradius 25.605
rwrist 2.27172
rhand -21.9761 -4.81107
rfingers 7.12502
rthumb 4.43183 -34.7447
lclavicle 8.19987e-016 -5.56597e-015
lhumerus -23.1026 1.9446 76.3021
lradius 64.1578
lwrist 34.6023
lhand -4.95557 17.0244
lfingers 7.12502
lthumb 20.8361 45.9256
rfemur -37.1327 10.8875 17.9685
rtibia 69.8884
rfoot -14.4615 -10.4309
rtoes -11.8634
lfemur 6.06881 18.2879 -27.7874
ltibia 21.4876
lfoot -16.3135 -10.7121
ltoes -0.563617
509
root 34.4857 15.8169 1.33259 180.206 -27.1889 -185.764
lowerback -3.35182 -2.09512 -3.62411
upperback 0.678638 -2.65568 -2.55264
thorax 2.6196 -1.39326 -0.747358
lowerneck 1.01946 8.44236 7.75658
upperneck 3.22415 11.3219 -3.30264
head 1.52256 5.70346 -2.18838
rclavicle -8.82977e-014 -2.90226e-014
rhumerus -39.3567 -0.267807 -84.5385
rradius 25.2961
rwrist 2.51997
rhand -21.9423 -4.86577
rfingers 7.12502
rthumb 4.46453 -34.7987
lclavicle -8.82977e-014 -2.90226e-014
lhumerus -22.8996 1.35326 76.5675
lradius 64.1605
lwrist 34.1483
lhand -4.40197 17.1281
lfingers 7.12502
lthumb 21.3679 45.9699
rfemur -37.5961 11.2881 17.9135
rtibia 67.8088
rfoot -14.67 -10.5721
rtoes -11.5894
lfemur 6.6938 18.8964 -27.5788
ltibia 20.6182
lfoot -15.81 -11.3495
ltoes -0.483147
